<svg width="482" height="375" viewBox="0 0 482.97 377.58">
    <path d="M354.33 112.85h-20.58a92.27 92.27 0 1 0-93 92.26v20.58a112.85 112.85 0 1 1 113.58-112.84zM241.49 86.11V65.47a47.38 47.38 0 1 0 47.37 47.68h-20.64c-.83 13.14-9.87 26.39-26.73 26.43-12.38 0-26.08-10.93-26.74-26.74-.4-9.63 7.92-26.51 26.74-26.73zm0-52.85h-.73v19.45h.73a60.16 60.16 0 1 1-60.15 60.16H161.9a79.58 79.58 0 1 0 79.58-79.59zM0 296.08v-85h11.24v74.94h41.85v10zm68.39 0v-85h11.24v85zm30.6 0v-85h31.88q9.74 0 15.62 2.58a20.17 20.17 0 0 1 9.22 7.94 20.92 20.92 0 0 1 3.29 11.24 19.24 19.24 0 0 1-3 10.26 21.07 21.07 0 0 1-8.92 7.77 22.24 22.24 0 0 1 11.92 7.71 20.65 20.65 0 0 1 4.14 12.86 24.8 24.8 0 0 1-2.52 11.1 21.58 21.58 0 0 1-6.23 7.92 26.09 26.09 0 0 1-9.3 4.2 56.94 56.94 0 0 1-13.71 1.42zm11.25-49.27h18.37c5 0 8.56-.33 10.72-1a11.88 11.88 0 0 0 6.46-4.23 12.2 12.2 0 0 0 2.18-7.42 13.68 13.68 0 0 0-2-7.45 10.34 10.34 0 0 0-5.8-4.41q-3.76-1.19-12.92-1.18h-17zm0 39.24h21.15a47.41 47.41 0 0 0 7.65-.41 18.29 18.29 0 0 0 6.49-2.31 12.36 12.36 0 0 0 4.29-4.73 14.76 14.76 0 0 0 1.68-7.16 14.11 14.11 0 0 0-2.43-8.25 12.87 12.87 0 0 0-6.75-4.93q-4.32-1.42-12.44-1.42h-19.64zm68.62 10v-85h61.44v10h-50.2v26h47v10h-47v28.92h52.17v10zm79.11 0v-85h37.68q11.36 0 17.27 2.29a18.87 18.87 0 0 1 9.44 8.08 24.13 24.13 0 0 1 3.54 12.81 21.4 21.4 0 0 1-5.85 15.25q-5.87 6.19-18.09 7.88a29 29 0 0 1 6.78 4.23 57.87 57.87 0 0 1 9.33 11.3l14.78 23.13h-14.14l-11.24-17.62q-4.94-7.65-8.12-11.71a25.48 25.48 0 0 0-5.7-5.68 17.13 17.13 0 0 0-5.13-2.26 34 34 0 0 0-6.26-.4h-13v37.73zm11.25-47.47h24.17q7.69 0 12.05-1.59a12.88 12.88 0 0 0 6.61-5.11 13.81 13.81 0 0 0 2.26-7.62 12.67 12.67 0 0 0-4.38-9.91q-4.38-3.88-13.82-3.88h-26.89zm93.78 47.5v-74.94h-28v-10h67.35v10h-28.11v74.94zm74.83 0v-36l-32.75-49h13.68l16.75 25.62q4.63 7.19 8.63 14.37 3.83-6.66 9.28-15l16.46-25H483l-33.91 49v36zm-332.28 81.5v-81.51h10.78V368h40.15v9.62zm65.61 0v-81.51h10.79v81.51zm29.69 0v-81.51h11.07l42.81 64v-64h10.34v81.51H254l-42.82-64.05v64.05zm81.9 0v-81.51h10.79v40.42L334 296.07h14.62l-34.19 33 35.69 48.48H335.9l-29-41.26-13.34 13v28.24z"/>
</svg>